<svg width="389" height="389" viewBox="0 0 389 389" fill="none" xmlns="http://www.w3.org/2000/svg">
<path fill-rule="evenodd" clip-rule="evenodd" d="M3.39423e-07 360.537C1.51965e-07 376.256 12.7435 389 28.4634 389L360.537 389C376.257 389 389 376.257 389 360.537L389 28.4634C389 12.7435 376.257 -2.60308e-05 360.537 -2.62182e-05L28.4634 -3.01782e-05C12.7435 -3.03656e-05 4.48681e-06 12.7435 4.29936e-06 28.4634L3.39423e-07 360.537ZM351.953 194.5C351.953 107.541 281.459 37.0475 194.5 37.0475C107.542 37.0475 37.0477 107.541 37.0477 194.5C37.0477 281.458 107.542 351.952 194.5 351.952C281.459 351.952 351.953 281.458 351.953 194.5Z" fill="#DFFF1C"/>
</svg>
